<svg width="161" height="32" viewBox="0 0 161 32" fill="none" xmlns="http://www.w3.org/2000/svg">
<mask id="path-1-inside-1_1_40" fill="white">
<path d="M19.752 9.488L13.152 17.336C13.088 17.4 13.056 17.488 13.056 17.6C13.056 17.712 13.088 17.8 13.152 17.864L19.752 25.712C19.8 25.76 19.808 25.824 19.776 25.904C19.744 25.968 19.688 26 19.608 26H13.704C13.304 26 12.976 25.848 12.72 25.544L8.568 20.624C8.44 20.464 8.272 20.384 8.064 20.384H6.624C6.56 20.384 6.48 20.416 6.384 20.48C6.32 20.576 6.288 20.656 6.288 20.72V25.664C6.288 25.76 6.256 25.84 6.192 25.904C6.128 25.968 6.048 26 5.952 26H0.936C0.84 26 0.76 25.968 0.696 25.904C0.632 25.808 0.6 25.728 0.6 25.664V9.536C0.6 9.44 0.632 9.36 0.696 9.296C0.76 9.232 0.84 9.2 0.936 9.2H5.952C6.048 9.2 6.128 9.232 6.192 9.296C6.256 9.36 6.288 9.44 6.288 9.536V14.576C6.288 14.64 6.32 14.72 6.384 14.816C6.48 14.88 6.56 14.912 6.624 14.912H7.968C8.192 14.912 8.368 14.832 8.496 14.672L12.72 9.656C12.976 9.352 13.304 9.2 13.704 9.2H19.608C19.688 9.2 19.744 9.232 19.776 9.296C19.808 9.376 19.8 9.44 19.752 9.488ZM20.8401 26C20.6481 26 20.4961 25.928 20.3841 25.784C20.2881 25.64 20.2561 25.472 20.2881 25.28L24.4881 9.608C24.5201 9.48 24.5841 9.384 24.6801 9.32C24.7921 9.24 24.9121 9.2 25.0401 9.2H34.2081C34.3361 9.2 34.4561 9.24 34.5681 9.32C34.6801 9.4 34.7441 9.496 34.7601 9.608L38.9601 25.28C39.0081 25.472 38.9761 25.64 38.8641 25.784C38.7521 25.928 38.6001 26 38.4081 26H33.5841C33.4561 26 33.3361 25.968 33.2241 25.904C33.1281 25.824 33.0641 25.72 33.0321 25.592L32.6961 24.296C32.6801 24.232 32.6401 24.176 32.5761 24.128C32.5121 24.08 32.4401 24.056 32.3601 24.056H26.8881C26.8081 24.056 26.7361 24.08 26.6721 24.128C26.6081 24.176 26.5681 24.232 26.5521 24.296C26.5201 24.44 26.4881 24.56 26.4561 24.656C26.4241 24.752 26.4001 24.84 26.3841 24.92C26.2721 25.336 26.2081 25.616 26.1921 25.76C26.1441 25.92 26.0321 26 25.8561 26H20.8401ZM30.8001 18.848C30.9121 18.848 31.0001 18.808 31.0641 18.728C31.1281 18.632 31.1441 18.52 31.1121 18.392L30.0801 14.576C30.0641 14.48 30.0001 14.432 29.8881 14.432H29.3601C29.2641 14.432 29.2001 14.48 29.1681 14.576L28.1361 18.392V18.488C28.1361 18.584 28.1601 18.672 28.2081 18.752C28.2721 18.816 28.3521 18.848 28.4481 18.848H30.8001ZM73.0179 13.352V14.48C73.0179 15.728 72.4419 16.856 71.5539 17.624C72.4179 18.392 72.9459 19.496 72.9459 20.72V21.848C72.9459 24.128 71.0979 26 68.8179 26H41.9859V23.96H68.8179C69.9699 23.96 70.9059 23 70.9059 21.848V20.72C70.9059 19.568 69.9699 18.632 68.8179 18.632H41.9859V16.568H68.8659C70.0419 16.568 70.9779 15.632 70.9779 14.48V13.352C70.9779 12.2 70.0419 11.24 68.8659 11.24H41.9859V9.2H68.8659C71.1699 9.2 73.0179 11.048 73.0179 13.352ZM81.9253 14.216C81.7973 14.216 81.7333 14.272 81.7333 14.384V15.368C81.7333 15.48 81.7973 15.536 81.9253 15.536H93.2533C93.3813 15.536 93.4853 15.584 93.5653 15.68C93.6613 15.76 93.7093 15.864 93.7093 15.992V19.28C93.7093 19.408 93.6613 19.52 93.5653 19.616C93.4853 19.696 93.3813 19.736 93.2533 19.736H81.9253C81.7973 19.736 81.7333 19.792 81.7333 19.904V20.936C81.7333 21.048 81.7973 21.104 81.9253 21.104H93.2533C93.3813 21.104 93.4853 21.152 93.5653 21.248C93.6613 21.328 93.7093 21.432 93.7093 21.56V25.544C93.7093 25.672 93.6613 25.784 93.5653 25.88C93.4853 25.96 93.3813 26 93.2533 26H76.5013C76.3733 26 76.2613 25.96 76.1653 25.88C76.0853 25.784 76.0453 25.672 76.0453 25.544V9.656C76.0453 9.528 76.0853 9.424 76.1653 9.344C76.2613 9.248 76.3733 9.2 76.5013 9.2H93.2533C93.3813 9.2 93.4853 9.248 93.5653 9.344C93.6613 9.424 93.7093 9.528 93.7093 9.656V13.76C93.7093 13.888 93.6613 14 93.5653 14.096C93.4853 14.176 93.3813 14.216 93.2533 14.216H81.9253ZM109.649 9.44C109.665 9.28 109.769 9.2 109.961 9.2H119.489C119.585 9.2 119.665 9.24 119.729 9.32C119.793 9.384 119.825 9.464 119.825 9.56V25.616C119.825 25.728 119.793 25.824 119.729 25.904C119.665 25.968 119.577 26 119.465 26H114.401C114.289 26 114.201 25.968 114.137 25.904C114.073 25.824 114.041 25.728 114.041 25.616V15.512C114.041 15.448 114.001 15.416 113.921 15.416C113.857 15.4 113.817 15.424 113.801 15.488L113.249 17.552C112.081 21.824 111.353 24.552 111.065 25.736C111.049 25.8 111.009 25.856 110.945 25.904C110.897 25.952 110.833 25.976 110.753 25.976H103.961C103.897 25.976 103.833 25.952 103.769 25.904C103.705 25.856 103.665 25.8 103.649 25.736C103.361 24.632 102.553 21.64 101.225 16.76L100.913 15.584C100.897 15.52 100.857 15.488 100.793 15.488C100.729 15.488 100.697 15.528 100.697 15.608V25.616C100.697 25.728 100.657 25.824 100.577 25.904C100.513 25.968 100.441 26 100.361 26H95.2725C95.1765 26 95.0885 25.968 95.0085 25.904C94.9445 25.824 94.9125 25.728 94.9125 25.616V9.56C94.9125 9.464 94.9445 9.384 95.0085 9.32C95.0725 9.24 95.1445 9.2 95.2245 9.2H104.753C104.945 9.2 105.049 9.28 105.065 9.44L107.249 18.008C107.281 18.072 107.313 18.104 107.345 18.104C107.393 18.104 107.425 18.072 107.441 18.008L109.649 9.44ZM121.598 26C121.406 26 121.254 25.928 121.142 25.784C121.046 25.64 121.014 25.472 121.046 25.28L125.246 9.608C125.278 9.48 125.342 9.384 125.438 9.32C125.55 9.24 125.67 9.2 125.798 9.2H134.966C135.094 9.2 135.214 9.24 135.326 9.32C135.438 9.4 135.502 9.496 135.518 9.608L139.718 25.28C139.766 25.472 139.734 25.64 139.622 25.784C139.51 25.928 139.358 26 139.166 26H134.342C134.214 26 134.094 25.968 133.982 25.904C133.886 25.824 133.822 25.72 133.79 25.592L133.454 24.296C133.438 24.232 133.398 24.176 133.334 24.128C133.27 24.08 133.198 24.056 133.118 24.056H127.646C127.566 24.056 127.494 24.08 127.43 24.128C127.366 24.176 127.326 24.232 127.31 24.296C127.278 24.44 127.246 24.56 127.214 24.656C127.182 24.752 127.158 24.84 127.142 24.92C127.03 25.336 126.966 25.616 126.95 25.76C126.902 25.92 126.79 26 126.614 26H121.598ZM131.558 18.848C131.67 18.848 131.758 18.808 131.822 18.728C131.886 18.632 131.902 18.52 131.87 18.392L130.838 14.576C130.822 14.48 130.758 14.432 130.646 14.432H130.118C130.022 14.432 129.958 14.48 129.926 14.576L128.894 18.392V18.488C128.894 18.584 128.918 18.672 128.966 18.752C129.03 18.816 129.11 18.848 129.206 18.848H131.558ZM147.856 26C147.744 26 147.656 25.968 147.592 25.904C147.528 25.824 147.496 25.736 147.496 25.64V14.768C147.496 14.672 147.464 14.592 147.4 14.528C147.336 14.464 147.256 14.432 147.16 14.432H141.28C141.2 14.432 141.12 14.392 141.04 14.312C140.976 14.216 140.944 14.128 140.944 14.048V9.56C140.944 9.48 140.976 9.392 141.04 9.296C141.104 9.232 141.184 9.2 141.28 9.2H159.376C159.472 9.2 159.552 9.232 159.616 9.296C159.68 9.392 159.712 9.48 159.712 9.56V14.048C159.712 14.128 159.68 14.216 159.616 14.312C159.536 14.392 159.456 14.432 159.376 14.432H153.496C153.416 14.432 153.336 14.464 153.256 14.528C153.192 14.592 153.16 14.672 153.16 14.768V25.64C153.16 25.736 153.128 25.824 153.064 25.904C153 25.968 152.912 26 152.8 26H147.856Z"/>
</mask>
<path d="M19.752 9.488L13.152 17.336C13.088 17.4 13.056 17.488 13.056 17.6C13.056 17.712 13.088 17.8 13.152 17.864L19.752 25.712C19.8 25.76 19.808 25.824 19.776 25.904C19.744 25.968 19.688 26 19.608 26H13.704C13.304 26 12.976 25.848 12.72 25.544L8.568 20.624C8.44 20.464 8.272 20.384 8.064 20.384H6.624C6.56 20.384 6.48 20.416 6.384 20.48C6.32 20.576 6.288 20.656 6.288 20.72V25.664C6.288 25.76 6.256 25.84 6.192 25.904C6.128 25.968 6.048 26 5.952 26H0.936C0.84 26 0.76 25.968 0.696 25.904C0.632 25.808 0.6 25.728 0.6 25.664V9.536C0.6 9.44 0.632 9.36 0.696 9.296C0.76 9.232 0.84 9.2 0.936 9.2H5.952C6.048 9.2 6.128 9.232 6.192 9.296C6.256 9.36 6.288 9.44 6.288 9.536V14.576C6.288 14.64 6.32 14.72 6.384 14.816C6.48 14.88 6.56 14.912 6.624 14.912H7.968C8.192 14.912 8.368 14.832 8.496 14.672L12.72 9.656C12.976 9.352 13.304 9.2 13.704 9.2H19.608C19.688 9.2 19.744 9.232 19.776 9.296C19.808 9.376 19.8 9.44 19.752 9.488ZM20.8401 26C20.6481 26 20.4961 25.928 20.3841 25.784C20.2881 25.64 20.2561 25.472 20.2881 25.28L24.4881 9.608C24.5201 9.48 24.5841 9.384 24.6801 9.32C24.7921 9.24 24.9121 9.2 25.0401 9.2H34.2081C34.3361 9.2 34.4561 9.24 34.5681 9.32C34.6801 9.4 34.7441 9.496 34.7601 9.608L38.9601 25.28C39.0081 25.472 38.9761 25.64 38.8641 25.784C38.7521 25.928 38.6001 26 38.4081 26H33.5841C33.4561 26 33.3361 25.968 33.2241 25.904C33.1281 25.824 33.0641 25.72 33.0321 25.592L32.6961 24.296C32.6801 24.232 32.6401 24.176 32.5761 24.128C32.5121 24.08 32.4401 24.056 32.3601 24.056H26.8881C26.8081 24.056 26.7361 24.08 26.6721 24.128C26.6081 24.176 26.5681 24.232 26.5521 24.296C26.5201 24.44 26.4881 24.56 26.4561 24.656C26.4241 24.752 26.4001 24.84 26.3841 24.92C26.2721 25.336 26.2081 25.616 26.1921 25.76C26.1441 25.92 26.0321 26 25.8561 26H20.8401ZM30.8001 18.848C30.9121 18.848 31.0001 18.808 31.0641 18.728C31.1281 18.632 31.1441 18.52 31.1121 18.392L30.0801 14.576C30.0641 14.48 30.0001 14.432 29.8881 14.432H29.3601C29.2641 14.432 29.2001 14.48 29.1681 14.576L28.1361 18.392V18.488C28.1361 18.584 28.1601 18.672 28.2081 18.752C28.2721 18.816 28.3521 18.848 28.4481 18.848H30.8001ZM73.0179 13.352V14.48C73.0179 15.728 72.4419 16.856 71.5539 17.624C72.4179 18.392 72.9459 19.496 72.9459 20.72V21.848C72.9459 24.128 71.0979 26 68.8179 26H41.9859V23.96H68.8179C69.9699 23.96 70.9059 23 70.9059 21.848V20.72C70.9059 19.568 69.9699 18.632 68.8179 18.632H41.9859V16.568H68.8659C70.0419 16.568 70.9779 15.632 70.9779 14.48V13.352C70.9779 12.2 70.0419 11.24 68.8659 11.24H41.9859V9.2H68.8659C71.1699 9.2 73.0179 11.048 73.0179 13.352ZM81.9253 14.216C81.7973 14.216 81.7333 14.272 81.7333 14.384V15.368C81.7333 15.48 81.7973 15.536 81.9253 15.536H93.2533C93.3813 15.536 93.4853 15.584 93.5653 15.68C93.6613 15.76 93.7093 15.864 93.7093 15.992V19.28C93.7093 19.408 93.6613 19.52 93.5653 19.616C93.4853 19.696 93.3813 19.736 93.2533 19.736H81.9253C81.7973 19.736 81.7333 19.792 81.7333 19.904V20.936C81.7333 21.048 81.7973 21.104 81.9253 21.104H93.2533C93.3813 21.104 93.4853 21.152 93.5653 21.248C93.6613 21.328 93.7093 21.432 93.7093 21.56V25.544C93.7093 25.672 93.6613 25.784 93.5653 25.88C93.4853 25.96 93.3813 26 93.2533 26H76.5013C76.3733 26 76.2613 25.96 76.1653 25.88C76.0853 25.784 76.0453 25.672 76.0453 25.544V9.656C76.0453 9.528 76.0853 9.424 76.1653 9.344C76.2613 9.248 76.3733 9.2 76.5013 9.2H93.2533C93.3813 9.2 93.4853 9.248 93.5653 9.344C93.6613 9.424 93.7093 9.528 93.7093 9.656V13.76C93.7093 13.888 93.6613 14 93.5653 14.096C93.4853 14.176 93.3813 14.216 93.2533 14.216H81.9253ZM109.649 9.44C109.665 9.28 109.769 9.2 109.961 9.2H119.489C119.585 9.2 119.665 9.24 119.729 9.32C119.793 9.384 119.825 9.464 119.825 9.56V25.616C119.825 25.728 119.793 25.824 119.729 25.904C119.665 25.968 119.577 26 119.465 26H114.401C114.289 26 114.201 25.968 114.137 25.904C114.073 25.824 114.041 25.728 114.041 25.616V15.512C114.041 15.448 114.001 15.416 113.921 15.416C113.857 15.4 113.817 15.424 113.801 15.488L113.249 17.552C112.081 21.824 111.353 24.552 111.065 25.736C111.049 25.8 111.009 25.856 110.945 25.904C110.897 25.952 110.833 25.976 110.753 25.976H103.961C103.897 25.976 103.833 25.952 103.769 25.904C103.705 25.856 103.665 25.8 103.649 25.736C103.361 24.632 102.553 21.64 101.225 16.76L100.913 15.584C100.897 15.52 100.857 15.488 100.793 15.488C100.729 15.488 100.697 15.528 100.697 15.608V25.616C100.697 25.728 100.657 25.824 100.577 25.904C100.513 25.968 100.441 26 100.361 26H95.2725C95.1765 26 95.0885 25.968 95.0085 25.904C94.9445 25.824 94.9125 25.728 94.9125 25.616V9.56C94.9125 9.464 94.9445 9.384 95.0085 9.32C95.0725 9.24 95.1445 9.2 95.2245 9.2H104.753C104.945 9.2 105.049 9.28 105.065 9.44L107.249 18.008C107.281 18.072 107.313 18.104 107.345 18.104C107.393 18.104 107.425 18.072 107.441 18.008L109.649 9.44ZM121.598 26C121.406 26 121.254 25.928 121.142 25.784C121.046 25.64 121.014 25.472 121.046 25.28L125.246 9.608C125.278 9.48 125.342 9.384 125.438 9.32C125.55 9.24 125.67 9.2 125.798 9.2H134.966C135.094 9.2 135.214 9.24 135.326 9.32C135.438 9.4 135.502 9.496 135.518 9.608L139.718 25.28C139.766 25.472 139.734 25.64 139.622 25.784C139.51 25.928 139.358 26 139.166 26H134.342C134.214 26 134.094 25.968 133.982 25.904C133.886 25.824 133.822 25.72 133.79 25.592L133.454 24.296C133.438 24.232 133.398 24.176 133.334 24.128C133.27 24.08 133.198 24.056 133.118 24.056H127.646C127.566 24.056 127.494 24.08 127.43 24.128C127.366 24.176 127.326 24.232 127.31 24.296C127.278 24.44 127.246 24.56 127.214 24.656C127.182 24.752 127.158 24.84 127.142 24.92C127.03 25.336 126.966 25.616 126.95 25.76C126.902 25.92 126.79 26 126.614 26H121.598ZM131.558 18.848C131.67 18.848 131.758 18.808 131.822 18.728C131.886 18.632 131.902 18.52 131.87 18.392L130.838 14.576C130.822 14.48 130.758 14.432 130.646 14.432H130.118C130.022 14.432 129.958 14.48 129.926 14.576L128.894 18.392V18.488C128.894 18.584 128.918 18.672 128.966 18.752C129.03 18.816 129.11 18.848 129.206 18.848H131.558ZM147.856 26C147.744 26 147.656 25.968 147.592 25.904C147.528 25.824 147.496 25.736 147.496 25.64V14.768C147.496 14.672 147.464 14.592 147.4 14.528C147.336 14.464 147.256 14.432 147.16 14.432H141.28C141.2 14.432 141.12 14.392 141.04 14.312C140.976 14.216 140.944 14.128 140.944 14.048V9.56C140.944 9.48 140.976 9.392 141.04 9.296C141.104 9.232 141.184 9.2 141.28 9.2H159.376C159.472 9.2 159.552 9.232 159.616 9.296C159.68 9.392 159.712 9.48 159.712 9.56V14.048C159.712 14.128 159.68 14.216 159.616 14.312C159.536 14.392 159.456 14.432 159.376 14.432H153.496C153.416 14.432 153.336 14.464 153.256 14.528C153.192 14.592 153.16 14.672 153.16 14.768V25.64C153.16 25.736 153.128 25.824 153.064 25.904C153 25.968 152.912 26 152.8 26H147.856Z" fill="#4DFFEA"/>
<path d="M19.752 9.488L19.0449 8.78089L19.0144 8.81138L18.9867 8.84437L19.752 9.488ZM13.152 17.336L13.8591 18.0431L13.8896 18.0126L13.9173 17.9796L13.152 17.336ZM13.152 17.864L13.9173 17.2204L13.8896 17.1874L13.8591 17.1569L13.152 17.864ZM19.752 25.712L18.9867 26.3556L19.0144 26.3886L19.0449 26.4191L19.752 25.712ZM19.776 25.904L20.6704 26.3512L20.689 26.314L20.7045 26.2754L19.776 25.904ZM12.72 25.544L13.4849 24.8999L13.4842 24.8991L12.72 25.544ZM8.568 20.624L7.78713 21.2487L7.79532 21.2589L7.80377 21.2689L8.568 20.624ZM6.384 20.48L5.8293 19.6479L5.66289 19.7589L5.55195 19.9253L6.384 20.48ZM0.696 25.904L-0.13605 26.4587L-0.0811242 26.5411L-0.0111069 26.6111L0.696 25.904ZM0.696 9.296L1.40311 10.0031H1.40311L0.696 9.296ZM6.384 14.816L5.55195 15.3707L5.66289 15.5371L5.8293 15.648L6.384 14.816ZM8.496 14.672L7.73109 14.0279L7.72299 14.0375L7.71513 14.0473L8.496 14.672ZM12.72 9.656L13.4849 10.3001V10.3001L12.72 9.656ZM19.776 9.296L20.7045 8.92461L20.689 8.88599L20.6704 8.84878L19.776 9.296ZM18.9867 8.84437L12.3867 16.6924L13.9173 17.9796L20.5173 10.1316L18.9867 8.84437ZM12.4449 16.6289C12.1509 16.9229 12.056 17.2895 12.056 17.6H14.056C14.056 17.6383 14.0506 17.7071 14.0198 17.7917C13.9876 17.8802 13.934 17.9682 13.8591 18.0431L12.4449 16.6289ZM12.056 17.6C12.056 17.9105 12.1509 18.2771 12.4449 18.5711L13.8591 17.1569C13.934 17.2318 13.9876 17.3198 14.0198 17.4083C14.0506 17.4929 14.056 17.5617 14.056 17.6H12.056ZM12.3867 18.5076L18.9867 26.3556L20.5173 25.0684L13.9173 17.2204L12.3867 18.5076ZM19.0449 26.4191C18.9205 26.2947 18.8268 26.1208 18.8017 25.92C18.7789 25.7372 18.821 25.5989 18.8475 25.5326L20.7045 26.2754C20.763 26.1291 20.8171 25.9188 20.7863 25.672C20.7532 25.4072 20.6315 25.1773 20.4591 25.0049L19.0449 26.4191ZM18.8816 25.4568C18.9438 25.3323 19.052 25.2003 19.2139 25.1078C19.3692 25.019 19.5154 25 19.608 25V27C19.7806 27 19.9948 26.965 20.2061 26.8442C20.424 26.7197 20.5762 26.5397 20.6704 26.3512L18.8816 25.4568ZM19.608 25H13.704V27H19.608V25ZM13.704 25C13.5968 25 13.5495 24.9765 13.4849 24.8999L11.9551 26.1881C12.4025 26.7194 13.0112 27 13.704 27V25ZM13.4842 24.8991L9.33223 19.9791L7.80377 21.2689L11.9558 26.1889L13.4842 24.8991ZM9.34887 19.9993C9.02777 19.5979 8.57043 19.384 8.064 19.384V21.384C8.03691 21.384 7.98145 21.378 7.91607 21.3469C7.85023 21.3155 7.8079 21.2747 7.78713 21.2487L9.34887 19.9993ZM8.064 19.384H6.624V21.384H8.064V19.384ZM6.624 19.384C6.25942 19.384 5.97511 19.5507 5.8293 19.6479L6.9387 21.312C6.94715 21.3064 6.92909 21.3198 6.88739 21.3365C6.84773 21.3523 6.75495 21.384 6.624 21.384V19.384ZM5.55195 19.9253C5.45474 20.0711 5.288 20.3554 5.288 20.72H7.288C7.288 20.851 7.25634 20.9437 7.24048 20.9834C7.2238 21.0251 7.21042 21.0431 7.21605 21.0347L5.55195 19.9253ZM5.288 20.72V25.664H7.288V20.72H5.288ZM5.288 25.664C5.288 25.5993 5.29917 25.5155 5.33552 25.4246C5.37234 25.3326 5.42605 25.2557 5.48489 25.1969L6.89911 26.6111C7.1629 26.3473 7.288 26.0074 7.288 25.664H5.288ZM5.48489 25.1969C5.54373 25.1381 5.62057 25.0843 5.71261 25.0475C5.80349 25.0112 5.88728 25 5.952 25V27C6.29536 27 6.63531 26.8749 6.89911 26.6111L5.48489 25.1969ZM5.952 25H0.936V27H5.952V25ZM0.936 25C1.00072 25 1.08451 25.0112 1.17539 25.0475C1.26744 25.0843 1.34427 25.1381 1.40311 25.1969L-0.0111069 26.6111C0.252689 26.8749 0.592638 27 0.936 27V25ZM1.52805 25.3493C1.52242 25.3408 1.5358 25.3589 1.55248 25.4006C1.56834 25.4403 1.6 25.533 1.6 25.664H-0.4C-0.4 26.0286 -0.233254 26.3129 -0.13605 26.4587L1.52805 25.3493ZM1.6 25.664V9.536H-0.4V25.664H1.6ZM1.6 9.536C1.6 9.60072 1.58883 9.68451 1.55248 9.77539C1.51566 9.86743 1.46195 9.94427 1.40311 10.0031L-0.0111074 8.58889C-0.274902 8.85269 -0.4 9.19264 -0.4 9.536H1.6ZM1.40311 10.0031C1.34427 10.0619 1.26744 10.1157 1.17539 10.1525C1.08451 10.1888 1.00072 10.2 0.936 10.2V8.2C0.592638 8.2 0.252688 8.3251 -0.0111076 8.58889L1.40311 10.0031ZM0.936 10.2H5.952V8.2H0.936V10.2ZM5.952 10.2C5.88728 10.2 5.80349 10.1888 5.71261 10.1525C5.62056 10.1157 5.54373 10.0619 5.48489 10.0031L6.89911 8.58889C6.63531 8.3251 6.29536 8.2 5.952 8.2V10.2ZM5.48489 10.0031C5.42605 9.94427 5.37234 9.86744 5.33552 9.77539C5.29917 9.68451 5.288 9.60072 5.288 9.536H7.288C7.288 9.19264 7.1629 8.85269 6.89911 8.58889L5.48489 10.0031ZM5.288 9.536V14.576H7.288V9.536H5.288ZM5.288 14.576C5.288 14.9406 5.45475 15.2249 5.55195 15.3707L7.21605 14.2613C7.21042 14.2528 7.2238 14.2709 7.24048 14.3126C7.25634 14.3523 7.288 14.445 7.288 14.576H5.288ZM5.8293 15.648C5.97511 15.7453 6.25942 15.912 6.624 15.912V13.912C6.75495 13.912 6.84773 13.9437 6.88739 13.9595C6.92909 13.9762 6.94715 13.9896 6.9387 13.9839L5.8293 15.648ZM6.624 15.912H7.968V13.912H6.624V15.912ZM7.968 15.912C8.46342 15.912 8.93976 15.7181 9.27687 15.2967L7.71513 14.0473C7.74329 14.0121 7.79054 13.9706 7.8542 13.9416C7.91519 13.9139 7.95976 13.912 7.968 13.912V15.912ZM9.26091 15.3161L13.4849 10.3001L11.9551 9.01186L7.73109 14.0279L9.26091 15.3161ZM13.4849 10.3001C13.5495 10.2234 13.5968 10.2 13.704 10.2V8.2C13.0112 8.2 12.4025 8.48055 11.9551 9.01186L13.4849 10.3001ZM13.704 10.2H19.608V8.2H13.704V10.2ZM19.608 10.2C19.5154 10.2 19.3692 10.181 19.2139 10.0922C19.052 9.99972 18.9438 9.86773 18.8816 9.74322L20.6704 8.84878C20.5762 8.66027 20.424 8.48028 20.2061 8.35575C19.9948 8.23497 19.7806 8.2 19.608 8.2V10.2ZM18.8475 9.66739C18.821 9.60109 18.7789 9.46284 18.8017 9.27996C18.8268 9.07919 18.9205 8.90528 19.0449 8.78089L20.4591 10.1951C20.6315 10.0227 20.7532 9.79281 20.7863 9.52804C20.8171 9.28116 20.763 9.07091 20.7045 8.92461L18.8475 9.66739ZM20.3841 25.784L19.552 26.3387L19.5723 26.3691L19.5947 26.3979L20.3841 25.784ZM20.2881 25.28L19.3221 25.0211L19.3096 25.0679L19.3017 25.1156L20.2881 25.28ZM24.4881 9.608L25.454 9.86686L25.4562 9.85872L25.4582 9.85054L24.4881 9.608ZM24.6801 9.32L25.2348 10.152L25.2482 10.1431L25.2613 10.1337L24.6801 9.32ZM34.5681 9.32L35.1493 8.50627L35.1493 8.50626L34.5681 9.32ZM34.7601 9.608L33.7701 9.74942L33.7786 9.80886L33.7941 9.86686L34.7601 9.608ZM38.9601 25.28L39.9302 25.0375L39.9282 25.0293L39.926 25.0211L38.9601 25.28ZM38.8641 25.784L38.0747 25.1701V25.1701L38.8641 25.784ZM33.2241 25.904L32.5839 26.6722L32.6515 26.7286L32.7279 26.7722L33.2241 25.904ZM33.0321 25.592L34.0022 25.3495L34.0001 25.341L33.0321 25.592ZM32.6961 24.296L31.7259 24.5385L31.7281 24.547L32.6961 24.296ZM26.6721 24.128L27.2721 24.928L27.2721 24.928L26.6721 24.128ZM26.5521 24.296L25.5819 24.0535L25.5787 24.0662L25.5759 24.0791L26.5521 24.296ZM26.3841 24.92L27.3497 25.18L27.3582 25.1483L27.3646 25.1161L26.3841 24.92ZM26.1921 25.76L27.1499 26.0473L27.1759 25.9605L27.1859 25.8704L26.1921 25.76ZM31.0641 18.728L31.8449 19.3527L31.872 19.3188L31.8961 19.2827L31.0641 18.728ZM31.1121 18.392L32.0822 18.1495L32.0799 18.1402L32.0774 18.1309L31.1121 18.392ZM30.0801 14.576L29.0937 14.7404L29.1018 14.7893L29.1147 14.8371L30.0801 14.576ZM29.1681 14.576L28.2194 14.2598L28.2103 14.2871L28.2027 14.3149L29.1681 14.576ZM28.1361 18.392L27.1707 18.1309L27.1361 18.2592V18.392H28.1361ZM28.2081 18.752L27.3506 19.2665L27.4139 19.3721L27.501 19.4591L28.2081 18.752ZM20.8401 25C20.8711 25 20.9346 25.0065 21.0101 25.0423C21.0873 25.0788 21.1416 25.1292 21.1734 25.1701L19.5947 26.3979C19.9074 26.8 20.3583 27 20.8401 27V25ZM21.2161 25.2293C21.2414 25.2672 21.2611 25.3139 21.2704 25.3629C21.2793 25.4098 21.2752 25.4398 21.2745 25.4444L19.3017 25.1156C19.2335 25.5244 19.2972 25.9564 19.552 26.3387L21.2161 25.2293ZM21.254 25.5389L25.454 9.86686L23.5221 9.34914L19.3221 25.0211L21.254 25.5389ZM25.4582 9.85054C25.4503 9.882 25.4321 9.9347 25.3921 9.9947C25.3509 10.0566 25.2966 10.1108 25.2348 10.152L24.1254 8.48795C23.7926 8.70977 23.601 9.03322 23.5179 9.36546L25.4582 9.85054ZM25.2613 10.1337C25.2433 10.1466 25.2128 10.1645 25.1703 10.1787C25.1271 10.1931 25.0822 10.2 25.0401 10.2V8.2C24.6877 8.2 24.3669 8.31475 24.0988 8.50626L25.2613 10.1337ZM25.0401 10.2H34.2081V8.2H25.0401V10.2ZM34.2081 10.2C34.1659 10.2 34.121 10.1931 34.0778 10.1787C34.0353 10.1645 34.0048 10.1466 33.9868 10.1337L35.1493 8.50626C34.8812 8.31475 34.5605 8.2 34.2081 8.2V10.2ZM33.9868 10.1337C33.9628 10.1166 33.9148 10.0769 33.868 10.0067C33.8189 9.93299 33.7837 9.84423 33.7701 9.74942L35.75 9.46658C35.6872 9.02701 35.432 8.70818 35.1493 8.50627L33.9868 10.1337ZM33.7941 9.86686L37.9941 25.5389L39.926 25.0211L35.726 9.34914L33.7941 9.86686ZM37.9899 25.5225C37.9843 25.4999 37.9747 25.442 37.9897 25.3629C38.0053 25.281 38.0401 25.2145 38.0747 25.1701L39.6534 26.3979C39.9717 25.9887 40.0455 25.4985 39.9302 25.0375L37.9899 25.5225ZM38.0747 25.1701C38.1065 25.1292 38.1608 25.0788 38.238 25.0423C38.3135 25.0065 38.377 25 38.4081 25V27C38.8899 27 39.3407 26.8 39.6534 26.3979L38.0747 25.1701ZM38.4081 25H33.5841V27H38.4081V25ZM33.5841 25C33.6044 25 33.6291 25.0027 33.6557 25.0098C33.6823 25.0168 33.7042 25.0266 33.7202 25.0358L32.7279 26.7722C32.9898 26.9219 33.2806 27 33.5841 27V25ZM33.8642 25.1358C33.8975 25.1635 33.9296 25.1994 33.9557 25.2419C33.9815 25.2839 33.9954 25.3221 34.0022 25.3495L32.0619 25.8345C32.1423 26.1561 32.3155 26.4486 32.5839 26.6722L33.8642 25.1358ZM34.0001 25.341L33.6641 24.045L31.7281 24.547L32.0641 25.843L34.0001 25.341ZM33.6662 24.0535C33.5834 23.7221 33.3833 23.4835 33.1761 23.328L31.9761 24.928C31.8968 24.8685 31.7768 24.7419 31.7259 24.5385L33.6662 24.0535ZM33.1761 23.328C32.939 23.1502 32.6564 23.056 32.3601 23.056V25.056C32.2984 25.056 32.2292 25.0465 32.1578 25.0227C32.0865 24.9989 32.0254 24.965 31.9761 24.928L33.1761 23.328ZM32.3601 23.056H26.8881V25.056H32.3601V23.056ZM26.8881 23.056C26.5917 23.056 26.3092 23.1502 26.0721 23.328L27.2721 24.928C27.2228 24.965 27.1617 24.9989 27.0903 25.0227C27.0189 25.0465 26.9497 25.056 26.8881 25.056V23.056ZM26.0721 23.328C25.8648 23.4835 25.6648 23.7221 25.5819 24.0535L27.5222 24.5385C27.4714 24.7419 27.3513 24.8685 27.2721 24.928L26.0721 23.328ZM25.5759 24.0791C25.5483 24.2032 25.5248 24.2874 25.5074 24.3398L27.4047 24.9722C27.4513 24.8326 27.4918 24.6768 27.5282 24.5129L25.5759 24.0791ZM25.5074 24.3398C25.4652 24.4662 25.4293 24.5949 25.4035 24.7239L27.3646 25.1161C27.3709 25.0851 27.3829 25.0378 27.4047 24.9722L25.5074 24.3398ZM25.4184 24.66C25.3097 25.064 25.224 25.4172 25.1982 25.6496L27.1859 25.8704C27.1859 25.8706 27.1865 25.8657 27.1882 25.855C27.1898 25.8445 27.1923 25.8303 27.1957 25.8119C27.2027 25.7747 27.2129 25.7262 27.2269 25.6648C27.2551 25.5417 27.2955 25.3811 27.3497 25.18L25.4184 24.66ZM25.2342 25.4727C25.2599 25.387 25.3304 25.2409 25.4908 25.1263C25.6463 25.0152 25.7938 25 25.8561 25V27C26.0943 27 26.3858 26.9448 26.6533 26.7537C26.9257 26.5591 27.0762 26.293 27.1499 26.0473L25.2342 25.4727ZM25.8561 25H20.8401V27H25.8561V25ZM30.8001 19.848C31.1835 19.848 31.5718 19.6941 31.8449 19.3527L30.2832 18.1033C30.3434 18.0281 30.4286 17.9566 30.5363 17.9076C30.6413 17.8599 30.7358 17.848 30.8001 17.848V19.848ZM31.8961 19.2827C32.1395 18.9176 32.1717 18.5075 32.0822 18.1495L30.1419 18.6345C30.1317 18.5936 30.121 18.5221 30.1341 18.4306C30.1477 18.3358 30.1829 18.247 30.232 18.1733L31.8961 19.2827ZM32.0774 18.1309L31.0454 14.3149L29.1147 14.8371L30.1467 18.6531L32.0774 18.1309ZM31.0665 14.4116C31.0259 14.1681 30.9006 13.8784 30.6201 13.668C30.3578 13.4713 30.076 13.432 29.8881 13.432V15.432C29.8121 15.432 29.6183 15.4167 29.4201 15.268C29.2036 15.1056 29.1183 14.8879 29.0937 14.7404L31.0665 14.4116ZM29.8881 13.432H29.3601V15.432H29.8881V13.432ZM29.3601 13.432C29.1402 13.432 28.8777 13.4898 28.6401 13.668C28.4069 13.8429 28.2826 14.07 28.2194 14.2598L30.1167 14.8922C30.0855 14.986 30.0092 15.1411 29.8401 15.268C29.6665 15.3982 29.4839 15.432 29.3601 15.432V13.432ZM28.2027 14.3149L27.1707 18.1309L29.1014 18.6531L30.1334 14.8371L28.2027 14.3149ZM27.1361 18.392V18.488H29.1361V18.392H27.1361ZM27.1361 18.488C27.1361 18.7597 27.2065 19.0264 27.3506 19.2665L29.0656 18.2375C29.1136 18.3176 29.1361 18.4083 29.1361 18.488H27.1361ZM27.501 19.4591C27.7648 19.7229 28.1047 19.848 28.4481 19.848V17.848C28.5128 17.848 28.5966 17.8592 28.6875 17.8955C28.7795 17.9323 28.8563 17.9861 28.9152 18.0449L27.501 19.4591ZM28.4481 19.848H30.8001V17.848H28.4481V19.848ZM71.5539 17.624L70.8998 16.8676L70.0371 17.6137L70.8896 18.3714L71.5539 17.624ZM41.9859 26H40.9859V27H41.9859V26ZM41.9859 23.96V22.96H40.9859V23.96H41.9859ZM41.9859 18.632H40.9859V19.632H41.9859V18.632ZM41.9859 16.568V15.568H40.9859V16.568H41.9859ZM41.9859 11.24H40.9859V12.24H41.9859V11.24ZM41.9859 9.2V8.2H40.9859V9.2H41.9859ZM72.0179 13.352V14.48H74.0179V13.352H72.0179ZM72.0179 14.48C72.0179 15.4137 71.5869 16.2733 70.8998 16.8676L72.2081 18.3804C73.2969 17.4387 74.0179 16.0423 74.0179 14.48H72.0179ZM70.8896 18.3714C71.5475 18.9562 71.9459 19.7914 71.9459 20.72H73.9459C73.9459 19.2006 73.2884 17.8278 72.2183 16.8766L70.8896 18.3714ZM71.9459 20.72V21.848H73.9459V20.72H71.9459ZM71.9459 21.848C71.9459 23.5833 70.5381 25 68.8179 25V27C71.6578 27 73.9459 24.6727 73.9459 21.848H71.9459ZM68.8179 25H41.9859V27H68.8179V25ZM42.9859 26V23.96H40.9859V26H42.9859ZM41.9859 24.96H68.8179V22.96H41.9859V24.96ZM68.8179 24.96C70.537 24.96 71.9059 23.5374 71.9059 21.848H69.9059C69.9059 22.4626 69.4029 22.96 68.8179 22.96V24.96ZM71.9059 21.848V20.72H69.9059V21.848H71.9059ZM71.9059 20.72C71.9059 19.0157 70.5222 17.632 68.8179 17.632V19.632C69.4177 19.632 69.9059 20.1203 69.9059 20.72H71.9059ZM68.8179 17.632H41.9859V19.632H68.8179V17.632ZM42.9859 18.632V16.568H40.9859V18.632H42.9859ZM41.9859 17.568H68.8659V15.568H41.9859V17.568ZM68.8659 17.568C70.5868 17.568 71.9779 16.1917 71.9779 14.48H69.9779C69.9779 15.0723 69.4971 15.568 68.8659 15.568V17.568ZM71.9779 14.48V13.352H69.9779V14.48H71.9779ZM71.9779 13.352C71.9779 11.6551 70.6016 10.24 68.8659 10.24V12.24C69.4823 12.24 69.9779 12.7449 69.9779 13.352H71.9779ZM68.8659 10.24H41.9859V12.24H68.8659V10.24ZM42.9859 11.24V9.2H40.9859V11.24H42.9859ZM41.9859 10.2H68.8659V8.2H41.9859V10.2ZM68.8659 10.2C70.6177 10.2 72.0179 11.6003 72.0179 13.352H74.0179C74.0179 10.4957 71.7222 8.2 68.8659 8.2V10.2ZM93.5653 15.68L92.7971 16.3202L92.8553 16.39L92.9251 16.4482L93.5653 15.68ZM93.5653 19.616L94.2724 20.3231V20.3231L93.5653 19.616ZM93.5653 21.248L92.7971 21.8882L92.8553 21.958L92.9251 22.0162L93.5653 21.248ZM93.5653 25.88L94.2724 26.5871V26.5871L93.5653 25.88ZM76.1653 25.88L75.3971 26.5202L75.4553 26.59L75.5251 26.6482L76.1653 25.88ZM76.1653 9.344L76.8724 10.0511V10.0511L76.1653 9.344ZM93.5653 9.344L92.7971 9.98418L92.8553 10.054L92.9251 10.1122L93.5653 9.344ZM93.5653 14.096L94.2724 14.8031V14.8031L93.5653 14.096ZM81.9253 13.216C81.7375 13.216 81.4099 13.2542 81.1228 13.5054C80.8102 13.779 80.7333 14.1366 80.7333 14.384H82.7333C82.7333 14.5194 82.6884 14.793 82.4398 15.0106C82.2167 15.2058 81.9851 15.216 81.9253 15.216V13.216ZM80.7333 14.384V15.368H82.7333V14.384H80.7333ZM80.7333 15.368C80.7333 15.6154 80.8102 15.973 81.1228 16.2466C81.4099 16.4978 81.7375 16.536 81.9253 16.536V14.536C81.9851 14.536 82.2167 14.5462 82.4398 14.7414C82.6884 14.959 82.7333 15.2326 82.7333 15.368H80.7333ZM81.9253 16.536H93.2533V14.536H81.9253V16.536ZM93.2533 16.536C93.1897 16.536 93.1023 16.5234 93.0083 16.48C92.9135 16.4362 92.8434 16.3757 92.7971 16.3202L94.3335 15.0398C94.0583 14.7095 93.6698 14.536 93.2533 14.536V16.536ZM92.9251 16.4482C92.8696 16.4019 92.8091 16.3318 92.7654 16.2371C92.7219 16.143 92.7093 16.0556 92.7093 15.992H94.7093C94.7093 15.5755 94.5358 15.187 94.2055 14.9118L92.9251 16.4482ZM92.7093 15.992V19.28H94.7093V15.992H92.7093ZM92.7093 19.28C92.7093 19.2155 92.7221 19.1408 92.7542 19.0661C92.7857 18.9925 92.8265 18.9406 92.8582 18.9089L94.2724 20.3231C94.5433 20.0522 94.7093 19.6906 94.7093 19.28H92.7093ZM92.8582 18.9089C92.9156 18.8515 92.9877 18.8037 93.0683 18.7727C93.1466 18.7426 93.2126 18.736 93.2533 18.736V20.736C93.6086 20.736 93.9796 20.6159 94.2724 20.3231L92.8582 18.9089ZM93.2533 18.736H81.9253V20.736H93.2533V18.736ZM81.9253 18.736C81.7375 18.736 81.4099 18.7742 81.1228 19.0254C80.8102 19.299 80.7333 19.6566 80.7333 19.904H82.7333C82.7333 20.0394 82.6884 20.313 82.4398 20.5306C82.2167 20.7258 81.9851 20.736 81.9253 20.736V18.736ZM80.7333 19.904V20.936H82.7333V19.904H80.7333ZM80.7333 20.936C80.7333 21.1834 80.8102 21.541 81.1228 21.8146C81.4099 22.0658 81.7375 22.104 81.9253 22.104V20.104C81.9851 20.104 82.2167 20.1142 82.4398 20.3094C82.6884 20.527 82.7333 20.8006 82.7333 20.936H80.7333ZM81.9253 22.104H93.2533V20.104H81.9253V22.104ZM93.2533 22.104C93.1897 22.104 93.1023 22.0914 93.0083 22.048C92.9135 22.0042 92.8434 21.9437 92.7971 21.8882L94.3335 20.6078C94.0583 20.2775 93.6698 20.104 93.2533 20.104V22.104ZM92.9251 22.0162C92.8696 21.9699 92.8091 21.8998 92.7654 21.8051C92.7219 21.711 92.7093 21.6236 92.7093 21.56H94.7093C94.7093 21.1435 94.5358 20.755 94.2055 20.4798L92.9251 22.0162ZM92.7093 21.56V25.544H94.7093V21.56H92.7093ZM92.7093 25.544C92.7093 25.4795 92.7221 25.4048 92.7542 25.3301C92.7857 25.2565 92.8265 25.2046 92.8582 25.1729L94.2724 26.5871C94.5433 26.3162 94.7093 25.9546 94.7093 25.544H92.7093ZM92.8582 25.1729C92.9156 25.1155 92.9877 25.0677 93.0683 25.0367C93.1466 25.0066 93.2126 25 93.2533 25V27C93.6086 27 93.9796 26.8799 94.2724 26.5871L92.8582 25.1729ZM93.2533 25H76.5013V27H93.2533V25ZM76.5013 25C76.5432 25 76.5977 25.0069 76.6576 25.0283C76.7179 25.0498 76.7678 25.0804 76.8055 25.1118L75.5251 26.6482C75.8055 26.8819 76.1456 27 76.5013 27V25ZM76.9335 25.2398C76.9649 25.2775 76.9955 25.3274 77.0171 25.3877C77.0385 25.4476 77.0453 25.5021 77.0453 25.544H75.0453C75.0453 25.8997 75.1634 26.2398 75.3971 26.5202L76.9335 25.2398ZM77.0453 25.544V9.656H75.0453V25.544H77.0453ZM77.0453 9.656C77.0453 9.6967 77.0388 9.76272 77.0087 9.84098C76.9776 9.92162 76.9298 9.99373 76.8724 10.0511L75.4582 8.63689C75.1654 8.92967 75.0453 9.30075 75.0453 9.656H77.0453ZM76.8724 10.0511C76.8407 10.0828 76.7888 10.1236 76.7152 10.1551C76.6405 10.1872 76.5658 10.2 76.5013 10.2V8.2C76.0908 8.2 75.7291 8.36598 75.4582 8.6369L76.8724 10.0511ZM76.5013 10.2H93.2533V8.2H76.5013V10.2ZM93.2533 10.2C93.1897 10.2 93.1023 10.1874 93.0083 10.144C92.9135 10.1002 92.8434 10.0397 92.7971 9.98418L94.3335 8.70382C94.0583 8.3735 93.6698 8.2 93.2533 8.2V10.2ZM92.9251 10.1122C92.8696 10.0659 92.8091 9.9958 92.7654 9.90106C92.7219 9.80699 92.7093 9.7196 92.7093 9.656H94.7093C94.7093 9.23954 94.5358 8.85104 94.2055 8.57578L92.9251 10.1122ZM92.7093 9.656V13.76H94.7093V9.656H92.7093ZM92.7093 13.76C92.7093 13.6955 92.7221 13.6208 92.7542 13.5461C92.7857 13.4725 92.8265 13.4206 92.8582 13.3889L94.2724 14.8031C94.5433 14.5322 94.7093 14.1706 94.7093 13.76H92.7093ZM92.8582 13.3889C92.9156 13.3315 92.9877 13.2837 93.0683 13.2527C93.1466 13.2226 93.2126 13.216 93.2533 13.216V15.216C93.6086 15.216 93.9796 15.0959 94.2724 14.8031L92.8582 13.3889ZM93.2533 13.216H81.9253V15.216H93.2533V13.216ZM109.648 9.44L110.617 9.68955L110.636 9.61554L110.644 9.5395L109.648 9.44ZM119.729 9.32L118.948 9.94469L118.982 9.98794L119.021 10.0271L119.729 9.32ZM119.729 25.904L120.436 26.6111L120.475 26.5719L120.509 26.5287L119.729 25.904ZM114.136 25.904L113.356 26.5287L113.39 26.5719L113.429 26.6111L114.136 25.904ZM113.921 15.416L113.678 16.3861L113.797 16.416H113.921V15.416ZM113.8 15.488L114.767 15.7464L114.769 15.7385L114.771 15.7305L113.8 15.488ZM113.249 17.552L114.213 17.8157L114.215 17.8104L113.249 17.552ZM111.064 25.736L112.035 25.9785L112.036 25.9724L111.064 25.736ZM110.945 25.904L110.344 25.104L110.288 25.1466L110.237 25.1969L110.945 25.904ZM103.769 25.904L104.368 25.104L103.769 25.904ZM103.648 25.736L104.619 25.4935L104.616 25.4836L103.648 25.736ZM101.225 16.76L100.258 17.0164L100.26 17.0226L101.225 16.76ZM100.912 15.584L99.9424 15.8265L99.9441 15.8335L99.9459 15.8404L100.912 15.584ZM100.576 25.904L101.284 26.6111L100.576 25.904ZM95.0085 25.904L94.2276 26.5287L94.297 26.6155L94.3838 26.6849L95.0085 25.904ZM95.0085 9.32L95.7156 10.0271L95.7548 9.98794L95.7894 9.94469L95.0085 9.32ZM105.064 9.44L104.069 9.5395L104.077 9.61423L104.095 9.687L105.064 9.44ZM107.249 18.008L106.279 18.255L106.306 18.3591L106.354 18.4552L107.249 18.008ZM107.44 18.008L106.472 17.7584L106.47 17.7655L107.44 18.008ZM110.644 9.5395C110.631 9.66739 110.562 9.8878 110.348 10.0526C110.161 10.1968 109.987 10.2 109.961 10.2V8.2C109.742 8.2 109.42 8.24324 109.129 8.46738C108.811 8.71219 108.682 9.05261 108.653 9.3405L110.644 9.5395ZM109.961 10.2H119.489V8.2H109.961V10.2ZM119.489 10.2C119.393 10.2 119.282 10.1789 119.173 10.1244C119.066 10.0709 118.993 10.0013 118.948 9.94469L120.509 8.69531C120.27 8.39642 119.911 8.2 119.489 8.2V10.2ZM119.021 10.0271C118.963 9.96827 118.909 9.89144 118.872 9.7994C118.836 9.70852 118.825 9.62472 118.825 9.56H120.825C120.825 9.21663 120.699 8.87668 120.436 8.61289L119.021 10.0271ZM118.825 9.56V25.616H120.825V9.56H118.825ZM118.825 25.616C118.825 25.5759 118.83 25.52 118.852 25.4558C118.874 25.3904 118.907 25.3302 118.948 25.2793L120.509 26.5287C120.729 26.2545 120.825 25.9325 120.825 25.616H118.825ZM119.021 25.1969C119.096 25.122 119.184 25.0684 119.273 25.0362C119.357 25.0054 119.426 25 119.465 25V27C119.775 27 120.142 26.9051 120.436 26.6111L119.021 25.1969ZM119.465 25H114.4V27H119.465V25ZM114.4 25C114.439 25 114.508 25.0054 114.592 25.0362C114.681 25.0684 114.769 25.122 114.844 25.1969L113.429 26.6111C113.723 26.9051 114.09 27 114.4 27V25ZM114.917 25.2793C114.958 25.3303 114.991 25.3904 115.013 25.4558C115.035 25.52 115.04 25.5759 115.04 25.616H113.04C113.04 25.9325 113.136 26.2545 113.356 26.5287L114.917 25.2793ZM115.04 25.616V15.512H113.04V25.616H115.04ZM115.04 15.512C115.04 15.2593 114.95 14.9114 114.635 14.6591C114.363 14.441 114.067 14.416 113.921 14.416V16.416C113.854 16.416 113.618 16.407 113.386 16.2209C113.111 16.0006 113.04 15.7007 113.04 15.512H115.04ZM114.163 14.4459C113.981 14.4005 113.656 14.3679 113.328 14.5645C113 14.7611 112.876 15.0639 112.83 15.2455L114.771 15.7305C114.741 15.8481 114.645 16.1069 114.357 16.2795C114.069 16.4521 113.796 16.4155 113.678 16.3861L114.163 14.4459ZM112.834 15.2296L112.282 17.2936L114.215 17.8104L114.767 15.7464L112.834 15.2296ZM112.284 17.2883C111.117 21.5561 110.385 24.299 110.093 25.4996L112.036 25.9724C112.32 24.805 113.044 22.0919 114.213 17.8157L112.284 17.2883ZM110.094 25.4935C110.145 25.2901 110.265 25.1635 110.344 25.104L111.545 26.704C111.752 26.5485 111.952 26.3099 112.035 25.9785L110.094 25.4935ZM110.237 25.1969C110.315 25.1192 110.409 25.0594 110.509 25.0217C110.607 24.9851 110.693 24.976 110.753 24.976V26.976C111.047 26.976 111.383 26.8798 111.652 26.6111L110.237 25.1969ZM110.753 24.976H103.961V26.976H110.753V24.976ZM103.961 24.976C104.162 24.976 104.303 25.0551 104.368 25.104L103.169 26.704C103.362 26.8489 103.631 26.976 103.961 26.976V24.976ZM104.368 25.104C104.448 25.1635 104.568 25.2901 104.619 25.4935L102.678 25.9785C102.761 26.3099 102.961 26.5485 103.169 26.704L104.368 25.104ZM104.616 25.4836C104.326 24.3733 103.517 21.3752 102.189 16.4974L100.26 17.0226C101.588 21.9048 102.395 24.8907 102.681 25.9884L104.616 25.4836ZM102.191 16.5036L101.879 15.3276L99.9459 15.8404L100.258 17.0164L102.191 16.5036ZM101.883 15.3415C101.837 15.1586 101.73 14.9189 101.495 14.7311C101.257 14.5409 100.994 14.488 100.793 14.488V16.488C100.655 16.488 100.444 16.4511 100.246 16.2929C100.051 16.1371 99.9721 15.9454 99.9424 15.8265L101.883 15.3415ZM100.793 14.488C100.54 14.488 100.192 14.578 99.9396 14.8933C99.7215 15.166 99.6965 15.4612 99.6965 15.608H101.697C101.697 15.6748 101.688 15.91 101.501 16.1427C101.281 16.418 100.981 16.488 100.793 16.488V14.488ZM99.6965 15.608V25.616H101.697V15.608H99.6965ZM99.6965 25.616C99.6965 25.5502 99.7088 25.4704 99.7434 25.3874C99.7779 25.3046 99.8252 25.2411 99.8694 25.1969L101.284 26.6111C101.549 26.3457 101.697 25.9962 101.697 25.616H99.6965ZM99.8694 25.1969C99.9114 25.1549 99.9768 25.1029 100.068 25.0622C100.162 25.0205 100.263 25 100.36 25V27C100.741 27 101.059 26.8358 101.284 26.6111L99.8694 25.1969ZM100.36 25H95.2725V27H100.36V25ZM95.2725 25C95.3381 25 95.4079 25.0114 95.4762 25.0362C95.5438 25.0608 95.5961 25.0935 95.6332 25.1231L94.3838 26.6849C94.6283 26.8805 94.9336 27 95.2725 27V25ZM95.7894 25.2793C95.8301 25.3303 95.8634 25.3904 95.8852 25.4558C95.9066 25.52 95.9125 25.5759 95.9125 25.616H93.9125C93.9125 25.9325 94.0083 26.2545 94.2276 26.5287L95.7894 25.2793ZM95.9125 25.616V9.56H93.9125V25.616H95.9125ZM95.9125 9.56C95.9125 9.62472 95.9013 9.70851 95.865 9.79939C95.8282 9.89143 95.7744 9.96826 95.7156 10.0271L94.3014 8.61289C94.0376 8.87669 93.9125 9.21664 93.9125 9.56H95.9125ZM95.7894 9.94469C95.7593 9.98231 95.6979 10.0476 95.5961 10.1042C95.4882 10.1641 95.3596 10.2 95.2245 10.2V8.2C94.7588 8.2 94.4235 8.45048 94.2276 8.6953L95.7894 9.94469ZM95.2245 10.2H104.753V8.2H95.2245V10.2ZM104.753 10.2C104.726 10.2 104.552 10.1968 104.365 10.0526C104.151 9.8878 104.082 9.66739 104.069 9.5395L106.06 9.3405C106.031 9.05261 105.902 8.71219 105.584 8.46737C105.293 8.24324 104.971 8.2 104.753 8.2V10.2ZM104.095 9.687L106.279 18.255L108.218 17.761L106.034 9.193L104.095 9.687ZM106.354 18.4552C106.394 18.5343 106.466 18.6642 106.589 18.7871C106.714 18.9121 106.97 19.104 107.344 19.104V17.104C107.687 17.104 107.911 17.2799 108.004 17.3729C108.095 17.4638 108.135 17.5457 108.143 17.5608L106.354 18.4552ZM107.344 19.104C107.616 19.104 107.896 19.0029 108.112 18.7871C108.301 18.5972 108.378 18.3828 108.411 18.2505L106.47 17.7655C106.487 17.6972 106.54 17.5308 106.697 17.3729C106.881 17.1891 107.121 17.104 107.344 17.104V19.104ZM108.409 18.2575L110.617 9.68955L108.68 9.19045L106.472 17.7584L108.409 18.2575ZM121.142 25.784L120.31 26.3387L120.33 26.3691L120.353 26.3979L121.142 25.784ZM121.046 25.28L120.08 25.0211L120.067 25.0679L120.059 25.1156L121.046 25.28ZM125.246 9.608L126.212 9.86686L126.214 9.85872L126.216 9.85054L125.246 9.608ZM125.438 9.32L125.993 10.152L126.006 10.1431L126.019 10.1337L125.438 9.32ZM135.326 9.32L135.907 8.50627V8.50626L135.326 9.32ZM135.518 9.608L134.528 9.74942L134.536 9.80886L134.552 9.86686L135.518 9.608ZM139.718 25.28L140.688 25.0375L140.686 25.0293L140.684 25.0211L139.718 25.28ZM139.622 25.784L138.833 25.1701V25.1701L139.622 25.784ZM133.982 25.904L133.342 26.6722L133.409 26.7286L133.486 26.7722L133.982 25.904ZM133.79 25.592L134.76 25.3495L134.758 25.341L133.79 25.592ZM133.454 24.296L132.484 24.5385L132.486 24.547L133.454 24.296ZM127.43 24.128L128.03 24.928V24.928L127.43 24.128ZM127.31 24.296L126.34 24.0535L126.337 24.0662L126.334 24.0791L127.31 24.296ZM127.142 24.92L128.107 25.18L128.116 25.1483L128.122 25.1161L127.142 24.92ZM126.95 25.76L127.908 26.0473L127.934 25.9605L127.944 25.8704L126.95 25.76ZM131.822 18.728L132.603 19.3527L132.63 19.3188L132.654 19.2827L131.822 18.728ZM131.87 18.392L132.84 18.1495L132.838 18.1402L132.835 18.1309L131.87 18.392ZM130.838 14.576L129.851 14.7404L129.86 14.7893L129.873 14.8371L130.838 14.576ZM129.926 14.576L128.977 14.2598L128.968 14.2871L128.961 14.3149L129.926 14.576ZM128.894 18.392L127.929 18.1309L127.894 18.2592V18.392H128.894ZM128.966 18.752L128.108 19.2665L128.172 19.3721L128.259 19.4591L128.966 18.752ZM121.598 25C121.629 25 121.692 25.0065 121.768 25.0423C121.845 25.0788 121.899 25.1292 121.931 25.1701L120.353 26.3979C120.665 26.8 121.116 27 121.598 27V25ZM121.974 25.2293C121.999 25.2672 122.019 25.3139 122.028 25.3629C122.037 25.4098 122.033 25.4398 122.032 25.4444L120.059 25.1156C119.991 25.5244 120.055 25.9564 120.31 26.3387L121.974 25.2293ZM122.012 25.5389L126.212 9.86686L124.28 9.34914L120.08 25.0211L122.012 25.5389ZM126.216 9.85054C126.208 9.882 126.19 9.9347 126.15 9.9947C126.109 10.0566 126.054 10.1108 125.993 10.152L124.883 8.48795C124.55 8.70977 124.359 9.03322 124.276 9.36546L126.216 9.85054ZM126.019 10.1337C126.001 10.1466 125.971 10.1645 125.928 10.1787C125.885 10.1931 125.84 10.2 125.798 10.2V8.2C125.445 8.2 125.125 8.31475 124.857 8.50626L126.019 10.1337ZM125.798 10.2H134.966V8.2H125.798V10.2ZM134.966 10.2C134.924 10.2 134.879 10.1931 134.836 10.1787C134.793 10.1645 134.763 10.1466 134.745 10.1337L135.907 8.50626C135.639 8.31475 135.318 8.2 134.966 8.2V10.2ZM134.745 10.1337C134.721 10.1166 134.673 10.0769 134.626 10.0067C134.577 9.93299 134.541 9.84423 134.528 9.74942L136.508 9.46658C136.445 9.02701 136.19 8.70818 135.907 8.50627L134.745 10.1337ZM134.552 9.86686L138.752 25.5389L140.684 25.0211L136.484 9.34914L134.552 9.86686ZM138.748 25.5225C138.742 25.4999 138.732 25.442 138.748 25.3629C138.763 25.281 138.798 25.2145 138.833 25.1701L140.411 26.3979C140.73 25.9887 140.803 25.4985 140.688 25.0375L138.748 25.5225ZM138.833 25.1701C138.864 25.1292 138.919 25.0788 138.996 25.0423C139.071 25.0065 139.135 25 139.166 25V27C139.648 27 140.099 26.8 140.411 26.3979L138.833 25.1701ZM139.166 25H134.342V27H139.166V25ZM134.342 25C134.362 25 134.387 25.0027 134.414 25.0098C134.44 25.0168 134.462 25.0266 134.478 25.0358L133.486 26.7722C133.748 26.9219 134.038 27 134.342 27V25ZM134.622 25.1358C134.655 25.1635 134.687 25.1994 134.714 25.2419C134.739 25.2839 134.753 25.3221 134.76 25.3495L132.82 25.8345C132.9 26.1561 133.073 26.4486 133.342 26.6722L134.622 25.1358ZM134.758 25.341L134.422 24.045L132.486 24.547L132.822 25.843L134.758 25.341ZM134.424 24.0535C134.341 23.7221 134.141 23.4835 133.934 23.328L132.734 24.928C132.655 24.8685 132.535 24.7419 132.484 24.5385L134.424 24.0535ZM133.934 23.328C133.697 23.1502 133.414 23.056 133.118 23.056V25.056C133.056 25.056 132.987 25.0465 132.916 25.0227C132.844 24.9989 132.783 24.965 132.734 24.928L133.934 23.328ZM133.118 23.056H127.646V25.056H133.118V23.056ZM127.646 23.056C127.35 23.056 127.067 23.1502 126.83 23.328L128.03 24.928C127.981 24.965 127.919 24.9989 127.848 25.0227C127.777 25.0465 127.708 25.056 127.646 25.056V23.056ZM126.83 23.328C126.623 23.4835 126.423 23.7221 126.34 24.0535L128.28 24.5385C128.229 24.7419 128.109 24.8685 128.03 24.928L126.83 23.328ZM126.334 24.0791C126.306 24.2032 126.283 24.2874 126.265 24.3398L128.163 24.9722C128.209 24.8326 128.25 24.6768 128.286 24.5129L126.334 24.0791ZM126.265 24.3398C126.223 24.4662 126.187 24.5949 126.161 24.7239L128.122 25.1161C128.129 25.0851 128.141 25.0378 128.163 24.9722L126.265 24.3398ZM126.176 24.66C126.067 25.064 125.982 25.4172 125.956 25.6496L127.944 25.8704C127.944 25.8706 127.944 25.8657 127.946 25.855C127.948 25.8445 127.95 25.8303 127.954 25.8119C127.961 25.7747 127.971 25.7262 127.985 25.6648C128.013 25.5417 128.053 25.3811 128.107 25.18L126.176 24.66ZM125.992 25.4727C126.018 25.387 126.088 25.2409 126.249 25.1263C126.404 25.0152 126.552 25 126.614 25V27C126.852 27 127.144 26.9448 127.411 26.7537C127.684 26.5591 127.834 26.293 127.908 26.0473L125.992 25.4727ZM126.614 25H121.598V27H126.614V25ZM131.558 19.848C131.941 19.848 132.33 19.6941 132.603 19.3527L131.041 18.1033C131.101 18.0281 131.186 17.9566 131.294 17.9076C131.399 17.8599 131.494 17.848 131.558 17.848V19.848ZM132.654 19.2827C132.897 18.9176 132.93 18.5075 132.84 18.1495L130.9 18.6345C130.889 18.5936 130.879 18.5221 130.892 18.4306C130.905 18.3358 130.941 18.247 130.99 18.1733L132.654 19.2827ZM132.835 18.1309L131.803 14.3149L129.873 14.8371L130.905 18.6531L132.835 18.1309ZM131.824 14.4116C131.784 14.1681 131.658 13.8784 131.378 13.668C131.116 13.4713 130.834 13.432 130.646 13.432V15.432C130.57 15.432 130.376 15.4167 130.178 15.268C129.961 15.1056 129.876 14.8879 129.851 14.7404L131.824 14.4116ZM130.646 13.432H130.118V15.432H130.646V13.432ZM130.118 13.432C129.898 13.432 129.635 13.4898 129.398 13.668C129.165 13.8429 129.04 14.07 128.977 14.2598L130.875 14.8922C130.843 14.986 130.767 15.1411 130.598 15.268C130.424 15.3982 130.242 15.432 130.118 15.432V13.432ZM128.961 14.3149L127.929 18.1309L129.859 18.6531L130.891 14.8371L128.961 14.3149ZM127.894 18.392V18.488H129.894V18.392H127.894ZM127.894 18.488C127.894 18.7597 127.964 19.0264 128.108 19.2665L129.823 18.2375C129.871 18.3176 129.894 18.4083 129.894 18.488H127.894ZM128.259 19.4591C128.523 19.7229 128.863 19.848 129.206 19.848V17.848C129.271 17.848 129.354 17.8592 129.445 17.8955C129.537 17.9323 129.614 17.9861 129.673 18.0449L128.259 19.4591ZM129.206 19.848H131.558V17.848H129.206V19.848ZM147.592 25.904L146.811 26.5287L146.845 26.5719L146.885 26.6111L147.592 25.904ZM147.4 14.528L146.693 15.2351V15.2351L147.4 14.528ZM141.04 14.312L140.208 14.8667L140.263 14.9491L140.333 15.0191L141.04 14.312ZM141.04 9.296L140.333 8.58889L140.263 8.65891L140.208 8.7413L141.04 9.296ZM159.616 9.296L160.448 8.7413L160.393 8.65891L160.323 8.58889L159.616 9.296ZM159.616 14.312L160.323 15.0191L160.393 14.9491L160.448 14.8667L159.616 14.312ZM153.256 14.528L152.631 13.7471L152.588 13.7817L152.549 13.8209L153.256 14.528ZM153.064 25.904L153.771 26.6111L153.81 26.5719L153.845 26.5287L153.064 25.904ZM147.856 25C147.894 25 147.963 25.0054 148.048 25.0362C148.136 25.0684 148.224 25.122 148.299 25.1969L146.885 26.6111C147.179 26.9051 147.545 27 147.856 27V25ZM148.373 25.2793C148.402 25.3164 148.435 25.3687 148.46 25.4363C148.484 25.5046 148.496 25.5744 148.496 25.64H146.496C146.496 25.9789 146.615 26.2842 146.811 26.5287L148.373 25.2793ZM148.496 25.64V14.768H146.496V25.64H148.496ZM148.496 14.768C148.496 14.4246 148.371 14.0847 148.107 13.8209L146.693 15.2351C146.634 15.1763 146.58 15.0994 146.543 15.0074C146.507 14.9165 146.496 14.8327 146.496 14.768H148.496ZM148.107 13.8209C147.843 13.5571 147.503 13.432 147.16 13.432V15.432C147.095 15.432 147.011 15.4208 146.92 15.3845C146.828 15.3477 146.751 15.2939 146.693 15.2351L148.107 13.8209ZM147.16 13.432H141.28V15.432H147.16V13.432ZM141.28 13.432C141.559 13.432 141.718 13.5759 141.747 13.6049L140.333 15.0191C140.522 15.2081 140.841 15.432 141.28 15.432V13.432ZM141.872 13.7573C141.874 13.761 141.891 13.7863 141.908 13.8323C141.925 13.8795 141.944 13.9535 141.944 14.048H139.944C139.944 14.3948 140.08 14.6756 140.208 14.8667L141.872 13.7573ZM141.944 14.048V9.56H139.944V14.048H141.944ZM141.944 9.56C141.944 9.65455 141.925 9.7285 141.908 9.77574C141.891 9.82173 141.874 9.84696 141.872 9.8507L140.208 8.7413C140.08 8.93237 139.944 9.21321 139.944 9.56H141.944ZM141.747 10.0031C141.688 10.0619 141.611 10.1157 141.519 10.1525C141.428 10.1888 141.344 10.2 141.28 10.2V8.2C140.936 8.2 140.596 8.3251 140.333 8.58889L141.747 10.0031ZM141.28 10.2H159.376V8.2H141.28V10.2ZM159.376 10.2C159.311 10.2 159.227 10.1888 159.136 10.1525C159.044 10.1157 158.967 10.0619 158.909 10.0031L160.323 8.58889C160.059 8.3251 159.719 8.2 159.376 8.2V10.2ZM158.784 9.8507C158.781 9.84696 158.765 9.82173 158.748 9.77574C158.731 9.7285 158.712 9.65455 158.712 9.56H160.712C160.712 9.21321 160.575 8.93237 160.448 8.7413L158.784 9.8507ZM158.712 9.56V14.048H160.712V9.56H158.712ZM158.712 14.048C158.712 13.9535 158.731 13.8795 158.748 13.8323C158.765 13.7863 158.781 13.761 158.784 13.7573L160.448 14.8667C160.575 14.6756 160.712 14.3948 160.712 14.048H158.712ZM158.909 13.6049C158.938 13.5759 159.097 13.432 159.376 13.432V15.432C159.815 15.432 160.134 15.2081 160.323 15.0191L158.909 13.6049ZM159.376 13.432H153.496V15.432H159.376V13.432ZM153.496 13.432C153.132 13.432 152.838 13.5817 152.631 13.7471L153.88 15.3089C153.834 15.3463 153.7 15.432 153.496 15.432V13.432ZM152.549 13.8209C152.285 14.0847 152.16 14.4246 152.16 14.768H154.16C154.16 14.8327 154.149 14.9165 154.112 15.0074C154.075 15.0994 154.022 15.1763 153.963 15.2351L152.549 13.8209ZM152.16 14.768V25.64H154.16V14.768H152.16ZM152.16 25.64C152.16 25.5744 152.171 25.5046 152.196 25.4363C152.221 25.3687 152.253 25.3164 152.283 25.2793L153.845 26.5287C154.04 26.2842 154.16 25.9789 154.16 25.64H152.16ZM152.357 25.1969C152.432 25.122 152.52 25.0684 152.608 25.0362C152.693 25.0054 152.761 25 152.8 25V27C153.11 27 153.477 26.9051 153.771 26.6111L152.357 25.1969ZM152.8 25H147.856V27H152.8V25Z" fill="#4DFFEA" mask="url(#path-1-inside-1_1_40)"/>
</svg>
