<svg width="24" height="24" viewBox="0 0 24 24" fill="none" xmlns="http://www.w3.org/2000/svg">
<path fill-rule="evenodd" clip-rule="evenodd" d="M21.5299 11.47C21.6704 11.6107 21.7493 11.8013 21.7493 12C21.7493 12.1988 21.6704 12.3894 21.5299 12.53L14.0299 20.03C13.9613 20.1037 13.8785 20.1628 13.7865 20.2038C13.6945 20.2448 13.5952 20.2668 13.4944 20.2686C13.3937 20.2704 13.2937 20.2519 13.2003 20.2142C13.1069 20.1764 13.0221 20.1203 12.9509 20.0491C12.8797 19.9779 12.8235 19.893 12.7858 19.7996C12.7481 19.7062 12.7296 19.6062 12.7313 19.5055C12.7331 19.4048 12.7552 19.3055 12.7961 19.2135C12.8371 19.1215 12.8962 19.0387 12.9699 18.97L19.1899 12.75L2.99993 12.75C2.80101 12.75 2.61025 12.671 2.4696 12.5304C2.32894 12.3897 2.24993 12.1989 2.24993 12C2.24993 11.8011 2.32894 11.6104 2.4696 11.4697C2.61025 11.329 2.80101 11.25 2.99993 11.25L19.1899 11.25L12.9699 5.03003C12.8962 4.96137 12.8371 4.87857 12.7961 4.78657C12.7552 4.69457 12.7331 4.59526 12.7313 4.49455C12.7296 4.39385 12.7481 4.29382 12.7858 4.20043C12.8235 4.10705 12.8797 4.02221 12.9509 3.95099C13.0221 3.87977 13.1069 3.82363 13.2003 3.78591C13.2937 3.74819 13.3937 3.72966 13.4944 3.73144C13.5952 3.73322 13.6945 3.75526 13.7865 3.79625C13.8785 3.83724 13.9613 3.89634 14.0299 3.97003L21.5299 11.47Z" fill="#F5F5F5"/>
</svg>
