<svg width="48" height="48" viewBox="0 0 48 48" fill="none" xmlns="http://www.w3.org/2000/svg">
<path d="M35.046 10.76C31.114 7.062 24.916 5.928 20.21 10.468L8.72999 21.528C8.5896 21.6715 8.42184 21.7854 8.23665 21.8628C8.05145 21.9403 7.85259 21.9798 7.65184 21.979C7.4511 21.9782 7.25255 21.9371 7.06797 21.8582C6.8834 21.7793 6.71654 21.6641 6.5773 21.5195C6.43805 21.3749 6.32925 21.2038 6.25733 21.0164C6.18542 20.829 6.15185 20.629 6.15863 20.4284C6.16541 20.2277 6.21239 20.0305 6.29679 19.8484C6.3812 19.6662 6.5013 19.5029 6.64999 19.368L18.126 8.308C24.278 2.376 32.326 4.084 37.1 8.574C39.5 10.828 41.194 13.874 41.462 17.192C41.736 20.556 40.526 24.042 37.402 27.056L23.178 40.78C18.772 45.03 13.012 43.78 9.63799 40.604C7.93799 39.008 6.71999 36.836 6.52599 34.444C6.32999 32.008 7.21199 29.504 9.42799 27.364L23.448 13.838C26.108 11.272 29.578 12.066 31.554 13.924C32.554 14.864 33.294 16.164 33.414 17.626C33.534 19.136 32.98 20.66 31.67 21.922L31.668 21.926L20.022 33.084C19.7345 33.3593 19.3494 33.5091 18.9515 33.5005C18.5535 33.4919 18.1753 33.3255 17.9 33.038C17.6247 32.7505 17.4749 32.3654 17.4835 31.9675C17.4921 31.5695 17.6585 31.1913 17.946 30.916L29.588 19.762C30.298 19.078 30.468 18.42 30.422 17.87C30.374 17.27 30.054 16.632 29.5 16.11C28.366 15.044 26.748 14.824 25.53 15.998L11.51 29.524C9.89399 31.084 9.39799 32.724 9.51599 34.204C9.63999 35.726 10.436 37.238 11.692 38.42C14.224 40.8 18.132 41.478 21.094 38.62L35.318 24.896C37.844 22.46 38.668 19.838 38.472 17.434C38.272 14.982 37 12.598 35.046 10.76Z" fill="#BABABA"/>
</svg>
